<svg xmlns="http://www.w3.org/2000/svg" width="944" height="799" viewBox="0 0 944 799">
    <g fill="none" fill-rule="evenodd">
        <g fill="#3F5BFF">
            <g>
                <path fill-opacity=".3" d="M.352 44.111L984.99 30l26.742 341.287c32.324 285.051.766 444.923-94.676 479.615-143.161 52.038-134.113-51.038-267.021-51.038-132.91 0-201.266 153.457-345.423 80.431-144.157-73.025-6.412-318.84-36.799-461.412-30.386-142.572-123.617-98.108-198.19-156.972C19.907 222.668-3.184 150.068.351 44.11z" transform="translate(-496) translate(495 -101)"/>
                <path fill-opacity=".5" d="M25.352 14.111L1009.99 0l26.742 341.287c32.324 285.051.766 444.923-94.676 479.615-143.161 52.038-134.113-51.038-267.021-51.038-132.91 0-201.266 153.457-345.423 80.431-144.157-73.025-6.412-318.84-36.799-461.412-30.386-142.572-123.617-98.108-198.19-156.972-49.716-39.243-72.807-111.843-69.272-217.8z" transform="translate(-496) translate(495 -101)"/>
            </g>
        </g>
    </g>
</svg>
