<svg xmlns="http://www.w3.org/2000/svg" width="300" height="411" viewBox="0 0 300 411">
    <defs>
        <linearGradient id="jiymqp98va" x1="50%" x2="50%" y1=".965%" y2="99.14%">
            <stop offset="0%" stop-color="#3F3D56"/>
            <stop offset="99.87%" stop-color="#282835"/>
        </linearGradient>
    </defs>
    <g fill="none" fill-rule="evenodd">
        <g>
            <g transform="translate(-940 -245) translate(940 245)">
                <path fill="#393947" fill-rule="nonzero" d="M175.361 5.994c6.296 3.168 12.24 7.578 16.3 13.852 6.06 9.442 7.06 21.803 6.354 33.356-.765 11.554-3 23.046-2.707 34.662.118 4.286.648 8.696 2.472 12.423 4.06 8.137 13.062 10.932 21.006 13.603 8.12 2.733 16.181 6.274 22.712 12.3 6.532 6.025 11.298 15.032 11.004 24.473-.118 4.721-1.412 9.753.53 13.914 1.235 2.61 3.53 4.349 5.59 6.212 12.238 10.87 18.828 30.189 13.533 46.588-5.355 16.709-21.007 26.648-36.482 30.623H58.327c-15.475-3.975-31.127-13.976-36.482-30.623-5.295-16.4 1.295-35.78 13.534-46.588 2.06-1.863 4.354-3.603 5.59-6.212 1.941-4.161.647-9.193.53-13.914-.295-9.441 4.471-18.448 11.003-24.474 6.53-6.025 14.592-9.566 22.712-12.299 7.944-2.733 16.946-5.528 21.006-13.603 1.883-3.727 2.354-8.137 2.472-12.423.294-11.616-1.942-23.108-2.707-34.662-.765-11.553.294-23.914 6.355-33.356 4-6.274 9.944-10.746 16.299-13.852C127.112 1.77 138.88-.28 148.177.03c9.297-.31 18.652 1.739 27.184 5.963z"/>
                <path fill="#FFD9CD" fill-rule="nonzero" d="M117.533 86s8.075 63.935-4.314 71.161C100.829 164.326 187 165 187 165s-19.231-55.484-10.54-72.447L117.533 86z"/>
                <path fill="#FFDED4" fill-rule="nonzero" d="M146.3 108c23.782 0 38.7-20.147 38.7-45s-14.918-45-38.7-45C122.52 18 108 38.147 108 63s14.52 45 38.3 45z"/>
                <path fill="#ADB1F3" fill-rule="nonzero" d="M269.159 211.092c-1.304-3.344-2.546-6.503-3.788-9.6-8.196-20.625-14.591-35.427-14.591-35.427l-71.966-30.535s-14.22 10.096-32.288 11.397c0 0-21.857-3.469-26.514-14.927l-65.88 30.782s0 .248.062.681h-.062s-11.425 11.52-15.71 37.41c-.186 1.176-.372 2.353-.496 3.53l-21.608 50.664L1.602 289.75c-2.236 5.202-2.111 11.21.248 16.413 4.222 9.104 9.066 17.9 14.468 26.26 5.464 8.486 11.735 16.352 18.69 23.474 8.072 8.052 17.386 14.865 27.817 18.705l4.347 3.53 11.921 9.662c-.062-2.663.062-5.326.435-7.99 15.523 11.025 59.981 40.568 70.786 26.447 3.539-4.645.931-11.025-4.782-17.776 15.71-1.053 34.276-6.317 44.273-9.476 1.428 6.07 2.297 10.777 2.297 10.777s10.37-5.326 24.65-13.13c10.991-5.946 24.279-13.317 37.008-20.81 5.34-3.098 10.556-6.256 15.461-9.291 13.164-8.176 24.03-15.794 28.438-20.81 9.439-10.777-11.61-71.289-28.5-114.644zm-210.06 94.205l11.736-40.507c.559 2.106 1.18 4.212 1.987 6.194l-2.484 47.257L59.1 305.297zm163.49 19.633l5.278-46.637 13.599 34.25-18.877 12.387z"/>
                <path fill="url(#jiymqp98va)" fill-rule="nonzero" d="M289.616 390.57h-7.266c.186-.62.248-1.242.248-1.863V247.128c0-3.85-3.105-7.017-7.018-7.017H172.302V238h-46.889v2.111H21.638c-3.85 0-7.018 3.105-7.018 7.017v141.517c0 .683.124 1.304.248 1.863h-2.546c-4.596 0-8.322 3.726-8.322 8.321v3.788c0 1.056.186 2.05.559 3.043.186.434.373.87.621 1.242C6.67 409.448 9.403 411 12.322 411h277.356c2.919 0 5.652-1.552 7.142-4.098.248-.373.435-.808.621-1.242.373-.994.559-1.987.559-3.043v-3.788c0-4.533-3.788-8.259-8.384-8.259z"/>
                <circle cx="148" cy="290" r="15" stroke="#FFF" stroke-opacity=".5"/>
                <path fill="#393947" fill-rule="nonzero" d="M104.003 47.884c0 2.763-.115 5.462 1.202 7.66 2.06 3.515 5.954 5.273 9.732 5.964 8.13 1.57 16.603-.753 23.817-5.023 7.214-4.332 13.397-10.547 18.893-17.265-1.775 4.144-.115 9.355 2.977 12.431 3.091 3.076 7.385 4.395 11.507 5.086 3.722.627 10.764-.942 16.03-2.888 2.863-1.068 4.466-4.395 3.607-7.597-2.461-9.104-6.24-19.15-11.564-25.804-6.355-8.036-15.687-13.75-25.362-13.436-1.947.063-5.382.377-6.184 2.323-4.35-2.134-10.534-2.511-15.171-1.632-4.637.879-9.103 3.14-13.053 5.964-4.58 3.265-8.645 7.472-11.45 12.557-2.863 5.148-4.695 15.57-4.981 21.66z"/>
            </g>
        </g>
    </g>
</svg>
