<svg xmlns="http://www.w3.org/2000/svg" width="121.503" height="31.203" viewBox="0 0 121.503 31.203">
  <g id="그룹_12" data-name="그룹 12" transform="translate(-680.566 -1827.217)">
    <g id="그룹_10" data-name="그룹 10" transform="translate(724.727 1831.855)">
      <path id="패스_14" data-name="패스 14" d="M769.161,1852.211l-.018-13.875a1.65,1.65,0,0,1,1.413-1.813l3.647,0q4.963-.007,4.97,5.324a6.46,6.46,0,0,1-1.28,4.3,4.413,4.413,0,0,1-3.556,1.522l-2.352,0,.006,4.54a1.65,1.65,0,0,1-1.413,1.813h0A1.65,1.65,0,0,1,769.161,1852.211Zm2.82-7.2,1.854,0a2.168,2.168,0,0,0,1.833-.729,3.759,3.759,0,0,0,.555-2.284,3.3,3.3,0,0,0-.531-2.18,2.4,2.4,0,0,0-1.824-.571l-1.894,0Z" transform="translate(-769.143 -1836.52)" fill="#3f5bff"/>
      <path id="패스_15" data-name="패스 15" d="M798.591,1859.727a4.794,4.794,0,0,1-3.791-1.482,6.15,6.15,0,0,1-1.323-4.216v-.308a6.1,6.1,0,0,1,1.4-4.275,5.394,5.394,0,0,1,7.5-.064,6.156,6.156,0,0,1,1.333,4.238v.308a6.047,6.047,0,0,1-1.4,4.275A4.83,4.83,0,0,1,798.591,1859.727Zm.038-2.114q2.328,0,2.324-3.462v-.528a4.615,4.615,0,0,0-.636-2.8,2.125,2.125,0,0,0-1.758-.79q-2.328,0-2.324,3.505v.484a4.623,4.623,0,0,0,.637,2.786A2.113,2.113,0,0,0,798.629,1857.613Z" transform="translate(-781.345 -1842.226)" fill="#3f5bff"/>
      <path id="패스_16" data-name="패스 16" d="M822.029,1859.747a9.82,9.82,0,0,1-3.322-.487,1.02,1.02,0,0,1-.689-.951h0a1.064,1.064,0,0,1,1.344-.986,9.267,9.267,0,0,0,2.221.267q2.285,0,2.283-1.236a.992.992,0,0,0-.374-.837,3.237,3.237,0,0,0-1.306-.461l-1.119-.241a4.393,4.393,0,0,1-2.309-1.054,3.057,3.057,0,0,1-.8-2.289,3.136,3.136,0,0,1,1.163-2.589,5.417,5.417,0,0,1,3.448-.941,10.218,10.218,0,0,1,2.8.346,1.028,1.028,0,0,1,.767.976v.021a1.059,1.059,0,0,1-1.288,1,9.748,9.748,0,0,0-1.974-.206q-2.052,0-2.05,1.192a.924.924,0,0,0,.35.8,3.1,3.1,0,0,0,1.212.406l1.142.218a4.785,4.785,0,0,1,2.531,1.131,3.148,3.148,0,0,1,.76,2.278,3.184,3.184,0,0,1-1.22,2.711A5.868,5.868,0,0,1,822.029,1859.747Z" transform="translate(-793.623 -1842.247)" fill="#3f5bff"/>
      <path id="패스_17" data-name="패스 17" d="M845.9,1858.878a4.431,4.431,0,0,1-2.8-.759,3.029,3.029,0,0,1-.968-2.523l-.011-13h-.544a1.142,1.142,0,0,1-1.165-1.118v-.07a1.143,1.143,0,0,1,1.163-1.122h.544l0-1.786a1.143,1.143,0,0,1,1.162-1.122h.865a1.143,1.143,0,0,1,1.165,1.118l0,1.786,1.781,0a1.143,1.143,0,0,1,1.165,1.119v.07a1.142,1.142,0,0,1-1.162,1.121l-1.781,0,.011,12.5a1.339,1.339,0,0,0,.385,1.1,2.1,2.1,0,0,0,1.3.308l.195,0a1.138,1.138,0,0,1,1.193,1.116h0a1.138,1.138,0,0,1-.889,1.092A6.717,6.717,0,0,1,845.9,1858.878Z" transform="translate(-804.881 -1836.951)" fill="#3f5bff"/>
      <path id="패스_18" data-name="패스 18" d="M909.147,1858.7a1.138,1.138,0,0,1-.889-1.092h0a1.138,1.138,0,0,1,1.193-1.116l.194,0a2.1,2.1,0,0,0,1.3-.308,1.338,1.338,0,0,0,.385-1.1l.011-12.5-1.781,0a1.143,1.143,0,0,1-1.162-1.121v-.07a1.143,1.143,0,0,1,1.165-1.119l1.781,0,0-1.786a1.142,1.142,0,0,1,1.165-1.118h.865a1.143,1.143,0,0,1,1.162,1.122l0,1.786h.544a1.143,1.143,0,0,1,1.162,1.122v.07a1.142,1.142,0,0,1-1.165,1.118h-.544l-.011,13a3.028,3.028,0,0,1-.968,2.523,4.433,4.433,0,0,1-2.8.759A6.716,6.716,0,0,1,909.147,1858.7Z" transform="translate(-838.9 -1836.951)" fill="#3f5bff"/>
      <path id="패스_19" data-name="패스 19" d="M865.677,1859.75a5.675,5.675,0,0,1-4.275-1.492,5.906,5.906,0,0,1-1.452-4.271v-.286a5.822,5.822,0,0,1,1.463-4.253,5.159,5.159,0,0,1,3.855-1.5,4.561,4.561,0,0,1,3.715,1.4,6.457,6.457,0,0,1,1.178,4.205v.1a.951.951,0,0,1-.948.955l-6.326.008a3.154,3.154,0,0,0,.989,2.256,3.837,3.837,0,0,0,2.454.668,8.184,8.184,0,0,0,2.249-.324.945.945,0,0,1,1.192.919h0a.943.943,0,0,1-.494.84A7.71,7.71,0,0,1,865.677,1859.75Zm-.473-9.757a2.157,2.157,0,0,0-1.555.641,3.2,3.2,0,0,0-.764,2.115l4.448-.006a3.348,3.348,0,0,0-.528-2.114A1.952,1.952,0,0,0,865.2,1849.993Z" transform="translate(-814.677 -1842.249)" fill="#3f5bff"/>
      <path id="패스_20" data-name="패스 20" d="M890.054,1859.726a6.009,6.009,0,0,1-4.314-1.437,5.553,5.553,0,0,1-1.521-4.216v-.33a5.589,5.589,0,0,1,1.626-4.352,6.293,6.293,0,0,1,4.4-1.492,7.9,7.9,0,0,1,2.584.372,1.025,1.025,0,0,1,.7.96v.139a1.068,1.068,0,0,1-1.322,1,8.02,8.02,0,0,0-1.684-.179,3.137,3.137,0,0,0-2.318.829,3.33,3.33,0,0,0-.825,2.457v.441a3.894,3.894,0,0,0,.785,2.708,3.219,3.219,0,0,0,2.46.834,7.034,7.034,0,0,0,1.695-.207,1.064,1.064,0,0,1,1.336.994h0a1.025,1.025,0,0,1-.642.938A7.612,7.612,0,0,1,890.054,1859.726Z" transform="translate(-826.846 -1842.225)" fill="#3f5bff"/>
    </g>
    <g id="그룹_11" data-name="그룹 11" transform="translate(680.566 1827.217)">
      <rect id="사각형_16" data-name="사각형 16" width="30.878" height="31.203" rx="6" fill="#3f5bff"/>
      <path id="패스_21" data-name="패스 21" d="M704,1854.466a2.745,2.745,0,0,1-1.829-.536,2.231,2.231,0,0,1-.633-1.783l-.009-9.183h-.355a.776.776,0,0,1-.762-.79v-.049a.777.777,0,0,1,.76-.793h.356v-1.262a.776.776,0,0,1,.76-.792h.565a.777.777,0,0,1,.762.79l0,1.262h1.165a.777.777,0,0,1,.762.79v.05a.777.777,0,0,1-.76.792l-1.165,0,.008,8.83a.99.99,0,0,0,.252.774,1.292,1.292,0,0,0,.85.218l.127,0a.772.772,0,0,1,.78.789h0a.792.792,0,0,1-.581.771A4.06,4.06,0,0,1,704,1854.466Z" transform="translate(-690.516 -1833.264)" fill="#fff"/>
      <path id="패스_22" data-name="패스 22" d="M712.766,1862.34a.793.793,0,0,1-.581-.771h0a.772.772,0,0,1,.78-.789l.127,0a1.294,1.294,0,0,0,.85-.218.99.99,0,0,0,.252-.774l.008-8.83h-1.165a.777.777,0,0,1-.76-.792v-.05a.777.777,0,0,1,.762-.79l1.165,0,0-1.262a.777.777,0,0,1,.762-.79h.565a.777.777,0,0,1,.76.793v1.262h.356a.777.777,0,0,1,.76.793v.049a.777.777,0,0,1-.762.791h-.356l-.008,9.183a2.23,2.23,0,0,1-.633,1.783,2.745,2.745,0,0,1-1.829.536A4.093,4.093,0,0,1,712.766,1862.34Z" transform="translate(-696.421 -1837.275)" fill="#fff"/>
    </g>
  </g>
</svg>
